#!OML:ASF F:\VICON\USERDATA\INSTALL\rory3\rory3.ASF
:FULLY-SPECIFIED
:DEGREES
116
root 0.4775 17.2566 28.0447 1.79979 1.20456 2.22415
lowerback 17.8309 -1.06221 -4.06355
upperback 2.11779 -2.37114 -2.24439
thorax -7.64569 -1.05338 0.461919
lowerneck -5.60811 0.506142 -2.2121
upperneck -8.57329 0.937733 3.07389
head -1.76325 0.487129 1.34042
rclavicle 1.45113e-014 1.90833e-014
rhumerus -48.8217 8.54272 -90.3644
rradius 84.8946
rwrist 8.82212
rhand -40.6375 35.7395
rfingers 7.12502
rthumb -13.5823 6.20256
lclavicle 1.45113e-014 1.90833e-014
lhumerus -17.6327 -20.7633 86.9627
lradius 116.509
lwrist 34.7628
lhand -38.2019 14.0194
lfingers 7.12502
lthumb -11.234 43.6986
rfemur -32.0478 -7.51685 16.4669
rtibia 114.094
rfoot 25.8472 -10.6554
rtoes 26.5227
lfemur -7.7421 -3.9927 -27.9408
ltibia 39.3945
lfoot -17.4003 -2.04462
ltoes -20.7022
117
root 0.463197 17.3083 28.5555 1.80347 1.17979 2.45839
lowerback 17.7287 -1.35022 -4.55606
upperback 2.01631 -2.83979 -2.19424
thorax -7.65698 -1.26221 0.902171
lowerneck -5.33 0.766349 -2.04702
upperneck -8.42937 1.25526 2.79312
head -1.7685 0.642715 1.22127
rclavicle 2.92213e-014 1.59028e-014
rhumerus -50.1467 8.52417 -90.3778
rradius 84.3524
rwrist 9.77576
rhand -40.598 34.5619
rfingers 7.12502
rthumb -13.5442 5.02241
lclavicle 2.92213e-014 1.59028e-014
lhumerus -16.4663 -20.8116 86.3778
lradius 117.184
lwrist 35.2656
lhand -39.0077 11.5513
lfingers 7.12502
lthumb -12.0111 41.1866
rfemur -34.4535 -6.87944 16.7459
rtibia 113.034
rfoot 23.4784 -10.7127
rtoes 24.396
lfemur -4.93746 -3.88636 -28.2345
ltibia 37.8994
lfoot -16.5866 -2.47176
ltoes -22.7767
118
root 0.452972 17.3818 29.0735 1.93385 1.5284 3.12277
lowerback 17.6632 -1.79393 -5.383
upperback 1.80472 -3.59275 -2.22948
thorax -7.76879 -1.59332 1.50553
lowerneck -5.2335 1.06522 -2.13637
upperneck -8.04742 1.64522 2.73088
head -1.67273 0.840642 1.21531
rclavicle -6.95746e-015 -2.06736e-014
rhumerus -51.3935 8.86671 -90.4478
rradius 83.8173
rwrist 10.7373
rhand -40.0706 35.3285
rfingers 7.12502
rthumb -13.0358 5.75579
lclavicle -6.95746e-015 -2.06736e-014
lhumerus -15.6158 -20.4892 85.7675
lradius 117.599
lwrist 35.5472
lhand -38.7072 6.17522
lfingers 7.12502
lthumb -11.7214 35.8273
rfemur -36.826 -6.72695 16.3244
rtibia 111.532
rfoot 22.7547 -10.5994
rtoes 21.2045
lfemur -2.34963 -4.12298 -28.9709
ltibia 36.2122
lfoot -15.1201 -2.48022
ltoes -24.926
119
root 0.44386 17.4796 29.6061 2.24362 1.58248 2.84828
lowerback 17.251 -2.22113 -5.39126
upperback 1.66 -4.11302 -1.96382
thorax -7.64616 -1.84237 1.89729
lowerneck -5.64894 1.33466 -2.09017
upperneck -7.40344 1.98424 2.46626
head -1.4015 1.01554 1.12435
rclavicle 1.63003e-014 1.11319e-014
rhumerus -52.3607 9.26124 -90.4304
rradius 83.2582
rwrist 11.3481
rhand -39.3624 35.4647
rfingers 7.12502
rthumb -12.3531 5.84963
lclavicle 1.63003e-014 1.11319e-014
lhumerus -14.7203 -19.6558 85.0936
lradius 118.503
lwrist 35.6764
lhand -39.8288 7.84644
lfingers 7.12502
lthumb -12.8027 37.4339
rfemur -39.1572 -5.97728 17.1584
rtibia 109.372
rfoot 22.6682 -10.9877
rtoes 19.2596
lfemur -0.0542147 -4.07988 -28.6149
ltibia 34.3412
lfoot -12.861 -2.66396
ltoes -27.2847
120
root 0.435149 17.5674 30.1422 2.42955 1.44205 2.66111
lowerback 17.0224 -2.54644 -5.4937
upperback 1.43543 -4.53663 -1.71056
thorax -7.70622 -2.03455 2.31359
lowerneck -5.77388 1.68119 -1.87583
upperneck -6.90777 2.40932 1.9793
head -1.22338 1.22842 0.936939
rclavicle 2.00773e-014 2.62396e-014
rhumerus -53.4069 9.46979 -90.3009
rradius 82.4581
rwrist 12.2897
rhand -39.0956 36.0916
rfingers 7.12502
rthumb -12.0958 6.46118
lclavicle 2.00773e-014 2.62396e-014
lhumerus -14.228 -18.9936 84.7085
lradius 119.315
lwrist 35.899
lhand -39.2782 6.92844
lfingers 7.12502
lthumb -12.2719 36.5484
rfemur -41.1357 -5.04373 17.7562
rtibia 106.904
rfoot 22.1955 -11.5042
rtoes 16.1093
lfemur 2.28994 -4.03373 -28.3947
ltibia 32.5043
lfoot -10.2087 -2.94737
ltoes -29.4638
121
root 0.412514 17.6683 30.6924 2.41487 2.12955 2.77531
lowerback 16.9458 -3.04794 -5.83369
upperback 1.17225 -5.25312 -1.50068
thorax -7.84622 -2.35528 2.88851
lowerneck -5.30641 1.91128 -1.70448
upperneck -6.62779 2.67458 1.40803
head -1.20574 1.35984 0.72728
rclavicle 1.18277e-014 -3.18055e-015
rhumerus -54.7313 9.62193 -90.1447
rradius 81.6899
rwrist 12.9649
rhand -39.1688 37.0796
rfingers 7.12502
rthumb -12.1665 7.4534
lclavicle 1.18277e-014 -3.18055e-015
lhumerus -14.3176 -19.1908 84.6914
lradius 120.458
lwrist 36.2329
lhand -39.0298 6.5271
lfingers 7.12502
lthumb -12.0324 36.1612
rfemur -42.1771 -5.01789 17.9739
rtibia 103.989
rfoot 20.9976 -12.2974
rtoes 16.3998
lfemur 4.81281 -4.58758 -28.2864
ltibia 30.6848
lfoot -7.16067 -4.01299
ltoes -27.7317
122
root 0.387732 17.7568 31.2308 2.65258 2.01909 2.59751
lowerback 16.4705 -3.27032 -6.00556
upperback 0.945574 -5.53533 -1.23887
thorax -7.76194 -2.4822 3.2979
lowerneck -5.14253 2.03056 -1.58988
upperneck -6.26282 2.80506 0.948287
head -1.11071 1.42535 0.565781
rclavicle -9.93923e-016 7.95139e-016
rhumerus -55.9487 9.76265 -90.0024
rradius 81.1601
rwrist 13.2238
rhand -39.3109 37.253
rfingers 7.12502
rthumb -12.3035 7.635
lclavicle -9.93923e-016 7.95139e-016
lhumerus -14.0754 -19.5596 84.4985
lradius 121.55
lwrist 36.6699
lhand -38.834 6.92564
lfingers 7.12502
lthumb -11.8436 36.5707
rfemur -43.6977 -4.0701 18.5538
rtibia 100.967
rfoot 19.7172 -13.2613
rtoes 17.5113
lfemur 6.89463 -4.48774 -27.8781
ltibia 28.7328
lfoot -3.55275 -4.84302
ltoes -27.3172
123
root 0.370806 17.8554 31.7931 2.75191 1.99408 2.29125
lowerback 15.9079 -3.61342 -5.93709
upperback 0.904349 -5.91997 -1.02163
thorax -7.4409 -2.6822 3.52602
lowerneck -5.42081 2.29354 -1.54437
upperneck -5.77934 3.15126 0.840038
head -0.91677 1.59782 0.531997
rclavicle 6.60959e-014 4.77083e-015
rhumerus -56.9495 9.94414 -89.9712
rradius 80.6872
rwrist 13.2607
rhand -39.4936 37.0566
rfingers 7.12502
rthumb -12.4796 7.44921
lclavicle 6.60959e-014 4.77083e-015
lhumerus -13.8211 -19.7443 84.0989
lradius 122.761
lwrist 37.5271
lhand -38.5771 6.97555
lfingers 7.12502
lthumb -11.5959 36.6347
rfemur -44.5394 -3.22429 19.1011
rtibia 97.4818
rfoot 18.2604 -13.998
rtoes 17.1723
lfemur 9.22171 -4.45746 -27.3372
ltibia 26.5108
lfoot 0.657193 -5.5704
ltoes -26.9826
124
root 0.358129 17.9615 32.3709 2.66518 1.8123 2.01553
lowerback 15.5389 -3.84256 -5.93789
upperback 0.799347 -6.18263 -0.7636
thorax -7.29434 -2.81163 3.82512
lowerneck -5.47189 2.53094 -1.6062
upperneck -5.3108 3.46745 0.773299
head -0.76789 1.7564 0.527418
rclavicle 2.50469e-014 -7.95139e-016
rhumerus -58.1246 10.0937 -89.7624
rradius 80.2218
rwrist 13.0754
rhand -39.3908 36.8822
rfingers 7.12502
rthumb -12.3805 7.26883
lclavicle 2.50469e-014 -7.95139e-016
lhumerus -14.0221 -20.0029 84.0846
lradius 123.896
lwrist 38.1103
lhand -38.9286 7.16336
lfingers 7.12502
lthumb -11.9348 36.8031
rfemur -44.9508 -2.22727 19.4813
rtibia 93.6543
rfoot 17.1354 -14.531
rtoes 15.5765
lfemur 11.836 -4.48762 -26.931
ltibia 24.0128
lfoot 5.43878 -5.63724
ltoes -27.0696
125
root 0.333982 18.0715 32.9527 2.82985 1.18981 1.50536
lowerback 14.9099 -3.83576 -5.83903
upperback 0.569339 -6.10119 -0.4339
thorax -7.17353 -2.77411 4.06078
lowerneck -5.23473 2.59699 -1.58427
upperneck -4.92245 3.54448 0.576062
head -0.683651 1.79377 0.463432
rclavicle 6.2319e-014 -8.74653e-015
rhumerus -59.3847 9.97761 -89.4306
rradius 79.7714
rwrist 12.6436
rhand -39.5623 36.5601
rfingers 7.12502
rthumb -12.5458 6.95676
lclavicle 6.2319e-014 -8.74653e-015
lhumerus -14.265 -20.2765 84.1729
lradius 124.625
lwrist 37.6363
lhand -39.0495 7.91731
lfingers 7.12502
lthumb -12.0514 37.5503
rfemur -45.5541 -0.616826 20.1076
rtibia 89.4908
rfoot 16.2678 -15.1763
rtoes 15
lfemur 14.2824 -4.54412 -26.3474
ltibia 20.9578
lfoot 11.172 -4.71146
ltoes -24.4794
126
root 0.342296 18.1728 33.5145 2.78762 0.99855 1.16716
lowerback 14.8124 -4.03902 -5.37956
upperback 0.349385 -6.28437 -0.260241
thorax -7.36599 -2.86423 4.0288
lowerneck -5.01409 2.73874 -1.52925
upperneck -4.50874 3.72296 0.394231
head -0.590031 1.88111 0.400327
rclavicle -1.33186e-014 -1.47101e-014
rhumerus -60.4437 9.97152 -89.199
rradius 78.9063
rwrist 11.6495
rhand -38.9912 36.6107
rfingers 7.12502
rthumb -11.9952 6.97442
lclavicle -1.33186e-014 -1.47101e-014
lhumerus -14.472 -20.7404 84.1585
lradius 125.41
lwrist 37.0843
lhand -39.2536 7.47444
lfingers 7.12502
lthumb -12.2482 37.0958
rfemur -45.5763 0.264003 20.2627
rtibia 85.0726
rfoot 15.4322 -14.9562
rtoes 13.4358
lfemur 17.2099 -4.88662 -26.0878
ltibia 17.3089
lfoot 17.2019 -3.3561
ltoes -21.5174
127
root 0.334192 18.2547 34.0898 2.36958 1.08502 0.860305
lowerback 14.9342 -4.32212 -5.19405
upperback 0.237373 -6.62558 -0.0709202
thorax -7.51838 -3.02451 4.20948
lowerneck -4.87194 2.9211 -1.5509
upperneck -3.89076 3.96483 0.360722
head -0.427034 2.00017 0.398931
rclavicle -1.11419e-013 1.94809e-014
rhumerus -61.6382 10.0709 -89.1326
rradius 78.1518
rwrist 10.111
rhand -37.1149 36.175
rfingers 7.12502
rthumb -10.1855 6.44162
lclavicle -1.11419e-013 1.94809e-014
lhumerus -14.8778 -21.2216 84.1781
lradius 126.239
lwrist 36.8766
lhand -39.1591 6.30292
lfingers 7.12502
lthumb -12.1571 35.9297
rfemur -44.9207 1.01402 20.3938
rtibia 80.4873
rfoot 14.3269 -14.6714
rtoes 12.0964
lfemur 20.983 -5.48972 -25.8319
ltibia 12.9632
lfoot 23.0096 -1.14233
ltoes -18.3777
128
root 0.3291 18.3312 34.6685 2.3033 0.897075 0.569911
lowerback 16.1597 -4.46371 -4.94016
upperback -1.05423 -6.8727 0.198599
thorax -9.59465 -3.02406 4.61818
lowerneck -3.94527 2.9642 -1.67797
upperneck -2.51368 4.01576 0.382528
head -0.162218 2.02114 0.425134
rclavicle 7.79236e-014 3.97569e-015
rhumerus -64.6672 10.2374 -89.0214
rradius 77.9637
rwrist 8.89553
rhand -38.7039 35.4968
rfingers 7.12502
rthumb -11.7181 5.84455
lclavicle 7.79236e-014 3.97569e-015
lhumerus -17.3317 -21.7825 85.1216
lradius 127.132
lwrist 36.3226
lhand -38.7447 5.27901
lfingers 7.12502
lthumb -11.7575 34.929
rfemur -44.5384 1.89473 20.4165
rtibia 75.7473
rfoot 13.3696 -13.8471
rtoes 10.4147
lfemur 25.2998 -5.8616 -25.594
ltibia 6.82532
lfoot 29.5129 1.51439
ltoes -13.1548
